<svg xmlns="http://www.w3.org/2000/svg" width="340" height="200" viewBox="0 0 340 200"><style>* {
          font-family: 'Segoe UI', Ubuntu, "Helvetica Neue", Sans-Serif
        }</style><rect x="1" y="1" rx="5" ry="5" height="99%" width="99.41176470588235%" stroke="#2e343b" stroke-width="1" fill="#0d1117" stroke-opacity="1"></rect><text x="30" y="40" style="font-size: 22px; fill: red;">Top Languages by Commit</text><g transform="translate(0,40)"><g transform="translate(40,0)"><rect y="18" width="14" height="14" fill="#3572A5" stroke="#0d1117" style="stroke-width: 1px;"></rect><rect y="43.2" width="14" height="14" fill="#3178c6" stroke="#0d1117" style="stroke-width: 1px;"></rect><rect y="68.4" width="14" height="14" fill="#e34c26" stroke="#0d1117" style="stroke-width: 1px;"></rect><rect y="93.60000000000002" width="14" height="14" fill="#b07219" stroke="#0d1117" style="stroke-width: 1px;"></rect><rect y="118.80000000000001" width="14" height="14" fill="#663399" stroke="#0d1117" style="stroke-width: 1px;"></rect><text x="16.8" y="30" style="fill: #77909c; font-size: 14px;">Python</text><text x="16.8" y="55.2" style="fill: #77909c; font-size: 14px;">TypeScript</text><text x="16.8" y="80.4" style="fill: #77909c; font-size: 14px;">HTML</text><text x="16.8" y="105.60000000000002" style="fill: #77909c; font-size: 14px;">Java</text><text x="16.8" y="130.8" style="fill: #77909c; font-size: 14px;">CSS</text></g><g transform="translate( 230, 80 )"><g class="arc"><path d="M3.67394039744206e-15,-60A60,60,0,1,1,-59.98813978620393,-1.1929312599042068L-34.99308154195229,-0.6958765682774539A35,35,0,1,0,2.1431318985078682e-15,-35Z" style="fill: #3572A5; stroke-width: 2px;" stroke="#0d1117"></path></g><g class="arc"><path d="M-59.98813978620393,-1.1929312599042068A60,60,0,0,1,-35.65206173830261,-48.2589939162459L-20.79703601400986,-28.151079784476774A35,35,0,0,0,-34.99308154195229,-0.6958765682774539Z" style="fill: #3178c6; stroke-width: 2px;" stroke="#0d1117"></path></g><g class="arc"><path d="M-35.65206173830261,-48.2589939162459A60,60,0,0,1,-14.180666311974248,-58.30016040242461L-8.272055348651644,-34.00842690141435A35,35,0,0,0,-20.79703601400986,-28.151079784476774Z" style="fill: #e34c26; stroke-width: 2px;" stroke="#0d1117"></path></g><g class="arc"><path d="M-14.180666311974248,-58.30016040242461A60,60,0,0,1,-2.3853909058155036,-59.95256383363811L-1.391478028392377,-34.97232890295557A35,35,0,0,0,-8.272055348651644,-34.00842690141435Z" style="fill: #b07219; stroke-width: 2px;" stroke="#0d1117"></path></g><g class="arc"><path d="M-2.3853909058155036,-59.95256383363811A60,60,0,0,1,4.226888398968133e-14,-60L2.4656848993980778e-14,-35A35,35,0,0,0,-1.391478028392377,-34.97232890295557Z" style="fill: #663399; stroke-width: 2px;" stroke="#0d1117"></path></g></g></g></svg>